<svg xmlns="http://www.w3.org/2000/svg" xmlns:svg="http://www.w3.org/2000/svg" xmlns:xlink="http://www.w3.org/1999/xlink" id="svg3413" width="64" height="64" version="1.1" viewBox="0 0 60 60"><defs id="defs3415"><linearGradient id="linearGradient3043" x1="492.76" x2="492.76" y1="1003.491" y2="1010.464" gradientTransform="matrix(4.2511238,0,0,4.9935976,-1885.8389,-4376.5962)" gradientUnits="userSpaceOnUse" xlink:href="#linearGradient4241-7"/><linearGradient id="linearGradient4241-7"><stop style="stop-color:#fff;stop-opacity:1" id="stop4243-0" offset="0"/><stop style="stop-color:#fff;stop-opacity:0" id="stop4245-3" offset="1"/></linearGradient></defs><metadata id="metadata3418"/><g id="layer1" transform="translate(-175.71428,-633.79071)"><circle style="fill:#00f;stroke:#00f;stroke-width:1.8709439;stroke-miterlimit:4;stroke-dasharray:none;image-rendering:auto" id="path3338" cx="205.714" cy="663.791" r="29.065"/><path id="path3375" d="m 208.55819,684.09944 c 0.27081,4.23249 -5.64557,3.95296 -5.62729,0 l 0,-25.52316 c 0.23989,-5.21255 5.18873,-5.27807 5.62729,0 z m -2.8439,-35.22157 c -1.00848,0 -1.87577,-0.32332 -2.60187,-0.96995 -0.68576,-0.68705 -1.02864,-1.59636 -1.02864,-2.72797 0,-1.1316 0.34288,-2.02071 1.02864,-2.66734 0.7261,-0.68704 1.59339,-1.03056 2.60187,-1.03056 1.00847,0 1.85559,0.34352 2.54136,1.03056 0.72611,0.64663 1.08916,1.53574 1.08916,2.66734 0,1.13161 -0.36305,2.04092 -1.08916,2.72797 -0.68577,0.64663 -1.53289,0.96995 -2.54136,0.96995 z" style="font-style:normal;font-variant:normal;font-weight:400;font-stretch:normal;font-size:60.56499863px;line-height:125%;font-family:Ubuntu;-inkscape-font-specification:'Ubuntu, Normal';text-align:start;letter-spacing:0;word-spacing:0;writing-mode:lr-tb;text-anchor:start;fill:#f9f9f9;fill-opacity:1;stroke:none;stroke-width:1px;stroke-linecap:butt;stroke-linejoin:miter;stroke-opacity:1"/><path style="color:#000;display:inline;overflow:visible;visibility:visible;opacity:.12000002;fill:#fff;fill-opacity:1;fill-rule:nonzero;stroke:none;stroke-width:2;marker:none;image-rendering:auto;enable-background:accumulate" id="path4241" d="m 175.90149,660.83307 c -0.0912,0.94978 -0.1872,2.0224 -0.1872,2.99616 0,16.54718 13.43148,29.96158 30,29.96158 16.56852,0 30,-13.4144 30,-29.96158 0,-0.97376 -0.0966,-2.04638 -0.1872,-2.99616 -1.5363,15.10843 -14.27952,26.96542 -29.8125,26.96542 -15.53298,0 -28.2762,-11.85699 -29.8125,-26.96542 z"/><ellipse style="color:#000;display:inline;overflow:visible;visibility:visible;opacity:.47999998;fill:url(#linearGradient3043);fill-opacity:1;fill-rule:nonzero;stroke:none;stroke-width:2;marker:none;image-rendering:auto;enable-background:accumulate" id="path4243" cx="205.714" cy="648.772" rx="21.256" ry="14.981"/></g></svg>