<svg xmlns="http://www.w3.org/2000/svg" xmlns:svg="http://www.w3.org/2000/svg" id="svg3378" width="64" height="64" version="1.1" viewBox="0 0 64 64"><metadata id="metadata3383"/><g id="layer1" transform="translate(-350.85712,-557.5051)"><rect id="rect3845" width="198.232" height="198.232" x="131.703" y="593.497" rx="43.75" ry="43.75" style="fill:#80b3ff;stroke:#80b3ff;stroke-width:1.76764083"/><path id="path3828-3" d="m 323.79032,740.46179 c 2.36552,-1.15938 3.89774,-4.31745 4.5137,-9.30761 1.20078,-9.72831 -1.80797,-30.05767 -6.50265,-43.93777 -3.68599,-10.89712 -11.2757,-25.9746 -16.65325,-33.0838 -3.56817,-4.71689 -6.76411,-7.73968 -9.73604,-9.21035 -2.1359,-1.05604 -4.7019,-1.23599 -6.50807,-0.45384 -2.21571,0.95329 -3.58336,2.82734 -10.32445,14.11781 -5.04366,8.44734 -7.128,11.46861 -9.97514,14.45978 -3.53588,3.71254 -6.29649,5.08257 -9.25548,4.59134 l -1.39004,-0.23406 0.12402,0.94356 c 0.0681,0.5189 0.35983,4.53965 0.64873,8.92914 0.37515,4.54578 1.29101,9.00263 0.2758,12.33678 5.54253,24.66375 5.86426,-1.47829 5.50322,-3.51889 -1.62155,8.9718 4.3256,25.01567 4.33601,-0.11125 0.65943,0.34867 -0.34192,1.01165 -0.31623,6.4055 1.23371,16.70102 7.30662,2.02321 3.97276,-6.80007 2.69911,18.6644 8.22009,21.87318 4.07576,-0.73867 2.99509,15.06842 10.99583,24.39516 3.70874,-0.65235 3.23318,12.77273 12.7178,26.26875 3.97226,-0.97365 8.24921,25.73844 11.03085,17.23655 3.42021,-4.09676 12.91717,35.96945 9.25816,14.20599 3.20838,-4.51533 13.95692,43.34915 10.86286,20.70814 4.40028,-0.60402 2.60931,2.64362 5.39754,14.03406 6.22633,18.13854 5.32531,24.28909 5.75762,8.75815 3.3607,-5.14185 -0.9949,-4.05238 -4.91593,-14.01476 -4.21975,-14.71361 0,0 5.20531,10.98801 6.85101,18.57873 -1.02221,27.12803 9.08073,24.4537 2.5228,-4.19494 -1.17325,-6.80037 -4.27088,-16.12652 -3.47618,-15.46414 0.48501,0.397 3.6254,10.62141 4.27835,12.54592 1.62393,4.79075 2.3358,10.07668 2.98078,22.13866 0.4868,9.10485 0.83337,11.80997 1.59305,12.44378 0.86476,0.72134 3.15295,-0.2559 3.38142,-2.7209 0.0827,-0.88519 0.90818,-3.02035 0.75195,-4.7348 -0.53937,-5.16296 1.58591,-11.52718 -4.48484,-30.54684 -1.47155,-6.86177 -4.83719,-9.04648 -3.9039,-9.04648 0.64103,0 1.29018,0.98095 3.00926,4.54361 3.41277,7.07577 5.1398,13.53811 6.19206,23.16976 0.28271,2.58597 0.38288,6.25807 0.42179,15.39696 0.0486,11.58595 0.13435,13.79498 0.6078,15.67146 0.18787,0.73776 0.31362,0.87546 0.84948,0.86574 0.34581,0 1.04697,-0.20976 1.55754,-0.45385 z" style="fill:#fff;stroke:#000;stroke-width:.69764328;stroke-miterlimit:4;stroke-dasharray:none"/><path id="path3828-3-6" d="m 352.34274,603.40972 c -0.68506,-0.33576 -1.12879,-1.25034 -1.30717,-2.69549 -0.34774,-2.81732 0.52358,-8.7047 1.88317,-12.72438 1.06746,-3.15581 3.26544,-7.52225 4.82278,-9.58106 1.03335,-1.36602 1.95889,-2.24142 2.81956,-2.66733 0.61855,-0.30583 1.36167,-0.35793 1.88474,-0.13143 0.64167,0.27607 1.03774,0.8188 2.98996,4.08852 1.46064,2.44635 2.06427,3.32131 2.88879,4.18756 1.024,1.07515 1.82347,1.4719 2.6804,1.32965 l 0.40255,-0.0678 -0.036,0.27326 c -0.0197,0.15027 -0.1042,1.31468 -0.18787,2.58588 -0.10864,1.31646 -0.10987,2.77774 -0.10987,2.77774 -0.27003,2.30099 -0.35417,3.14281 -0.84551,3.33532 -0.59491,0.23308 -0.71822,-3.55941 -0.71822,-3.55941 -0.0839,3.10915 -1.09438,7.24621 -1.25571,-0.0322 0,0 -0.0307,0.49677 -0.0381,2.05883 -0.35728,4.83663 -1.73272,1.33304 -1.02081,-2.17311 -0.78167,5.40522 -2.38054,6.33449 -1.18034,-0.21391 -0.86738,4.36382 -3.1844,7.06484 -1.07406,-0.18892 -0.93632,3.69899 -3.68307,7.60744 -1.15036,-0.28197 -2.38898,7.45385 -3.19453,4.99171 -0.9905,-1.18642 -3.74081,10.41675 -2.87616,4.71404 -1.12414,-0.70766 -4.04192,12.55393 -2.95088,5.39709 -1.07932,-0.77491 -0.55187,1.13922 -1.55361,4.08174 -1.80315,5.25293 -1.68434,7.57048 -1.6165,2.14679 -0.8122,-1.52935 0.28813,-1.17357 1.06098,-4.22079 1.06098,-4.22079 0,0 -1.60813,3.20225 -1.76258,5.5012 -0.50932,7.41334 -2.85125,6.96099 -0.95207,-1.33566 0.33977,-1.96939 1.0067,-4.47842 1.0067,-4.47842 0,0 -1.04992,3.07597 -1.23902,3.6333 -0.47028,1.3874 -0.67644,2.91821 -0.86323,6.41135 -0.14097,2.63677 -0.24134,3.42018 -0.46134,3.60373 -0.25044,0.2089 -0.91309,-0.0741 -0.97926,-0.78798 -0.25563,-4.13781 0.26701,-9.69975 2.21161,-12.83742 0,0 -0.37364,0.28408 -0.87148,1.31583 -0.98834,2.04914 -1.48849,3.92064 -1.79322,6.70997 -0.0819,0.7489 -0.11089,1.81233 -0.12215,4.45895 -0.0141,3.3553 -0.039,3.99503 -0.17602,4.53846 -0.13796,0.38315 -0.39177,0.22952 -0.69707,0.11929 z" style="fill:#fff;stroke:#000;stroke-width:.20203747;stroke-miterlimit:4;stroke-dasharray:none"/><rect style="fill:#b3b3b3;fill-rule:evenodd;stroke:#b3b3b3;stroke-width:.66938049px;stroke-linecap:butt;stroke-linejoin:miter;stroke-opacity:1" id="rect3005" width="74.901" height="142.968" x="193.453" y="621.13" rx="13.496" ry="14.907"/><rect style="fill:#b3b3b3;stroke:#b3b3b3;stroke-width:.66938049" id="rect3007" width="19.569" height="10.164" x="197.502" y="648.233" rx="13.496" ry="10.164"/><rect id="rect3009" width="19.569" height="10.164" x="197.502" y="648.233" rx="13.496" ry="10.164" style="fill:#b3b3b3;stroke:#b3b3b3;stroke-width:.66938049"/><rect style="fill:#80b3ff;stroke:#80b3ff;stroke-width:10.2019186;stroke-linejoin:round;stroke-miterlimit:4;stroke-dasharray:none" id="rect3011" width="40.323" height="80.574" x="211.185" y="641.806" rx="0" ry="0"/><ellipse style="fill:#fff;stroke:#000;stroke-width:2.00814199;stroke-miterlimit:4;stroke-dasharray:none" id="path3013" cx="230.566" cy="749.868" rx="8.772" ry="8.808"/><path id="path3828-3-6-7" d="m 413.3715,603.40972 c 0.68506,-0.33576 1.12879,-1.25034 1.30717,-2.69549 0.34774,-2.81732 -0.52358,-8.7047 -1.88317,-12.72438 -1.06746,-3.15581 -3.26544,-7.52225 -4.82278,-9.58106 -1.03335,-1.36602 -1.95889,-2.24142 -2.81956,-2.66733 -0.61855,-0.30583 -1.36167,-0.35793 -1.88474,-0.13143 -0.64167,0.27607 -1.03774,0.8188 -2.98996,4.08852 -1.46064,2.44635 -2.06427,3.32131 -2.88879,4.18756 -1.024,1.07515 -1.82347,1.4719 -2.6804,1.32965 l -0.40255,-0.0678 0.036,0.27326 c 0.0197,0.15027 0.1042,1.31468 0.18787,2.58588 0.10864,1.31646 0.10987,2.77774 0.10987,2.77774 0.27003,2.30099 0.35417,3.14281 0.84551,3.33532 0.59491,0.23308 0.71822,-3.55941 0.71822,-3.55941 0.0839,3.10915 1.09438,7.24621 1.25571,-0.0322 0,0 0.0307,0.49677 0.0381,2.05883 0.35728,4.83663 1.73272,1.33304 1.02081,-2.17311 0.78167,5.40522 2.38054,6.33449 1.18034,-0.21391 0.86738,4.36382 3.1844,7.06484 1.07406,-0.18892 0.93632,3.69899 3.68307,7.60744 1.15036,-0.28197 2.38898,7.45385 3.19453,4.99171 0.9905,-1.18642 3.74081,10.41675 2.87616,4.71404 1.12414,-0.70766 4.04192,12.55393 2.95088,5.39709 1.07932,-0.77491 0.55187,1.13922 1.55361,4.08174 1.80315,5.25293 1.68434,7.57048 1.6165,2.14679 0.8122,-1.52935 -0.28813,-1.17357 -1.06098,-4.22079 -1.06098,-4.22079 0,0 1.60813,3.20225 1.76258,5.5012 0.50932,7.41334 2.85125,6.96099 0.95207,-1.33566 -0.33977,-1.96939 -1.0067,-4.47842 -1.0067,-4.47842 0,0 1.04992,3.07597 1.23902,3.6333 0.47028,1.3874 0.67644,2.91821 0.86323,6.41135 0.14097,2.63677 0.24134,3.42018 0.46134,3.60373 0.25044,0.2089 0.91309,-0.0741 0.97926,-0.78798 0.25563,-4.13781 -0.26701,-9.69975 -2.21161,-12.83742 0,0 0.37364,0.28408 0.87148,1.31583 0.98834,2.04914 1.48849,3.92064 1.79322,6.70997 0.0819,0.7489 0.11089,1.81233 0.12215,4.45895 0.0141,3.3553 0.039,3.99503 0.17602,4.53846 0.13796,0.38315 0.39177,0.22952 0.69707,0.11929 z" style="fill:#fff;stroke:#000;stroke-width:.20203747;stroke-miterlimit:4;stroke-dasharray:none"/><g id="g3471" transform="matrix(0.91666667,0,0,0.91666667,30.042531,50.118044)"><rect id="rect3435" width="27" height="48" x="371.389" y="564.422" rx="3" ry="3" style="fill:#999;fill-rule:evenodd;stroke:none;stroke-width:.5051527px;stroke-linecap:butt;stroke-linejoin:miter;stroke-opacity:1"/><rect id="rect3437" width="24" height="37.5" x="372.889" y="568.693" style="fill:#ececec"/><rect id="rect3439" width="6" height=".75" x="381.889" y="566.115" rx=".75" ry=".75" style="fill:#4d4d4d;stroke:none"/><rect id="rect3439-3" width="6" height="3" x="381.889" y="608.093" rx="1.5" ry="1.5" style="fill:#4d4d4d;stroke:none"/></g></g></svg>