<svg xmlns="http://www.w3.org/2000/svg" xmlns:svg="http://www.w3.org/2000/svg" id="svg3378" width="213.333" height="213.333" version="1.1" viewBox="0 0 200 200"><metadata id="metadata3383"/><g id="layer1" transform="translate(-350.85712,-421.5051)"><rect id="rect3845" width="198.232" height="198.232" x="351.741" y="422.389" rx="43.75" ry="43.75" style="fill:#80b3ff;stroke:#80b3ff;stroke-width:1.76764083"/><path id="path3828-3" d="m 543.82872,569.35336 c 2.36552,-1.15938 3.89774,-4.31745 4.5137,-9.30761 1.20078,-9.72831 -1.80797,-30.05767 -6.50265,-43.93777 -3.68599,-10.89712 -11.2757,-25.9746 -16.65325,-33.0838 -3.56817,-4.71689 -6.76411,-7.73968 -9.73604,-9.21035 -2.1359,-1.05604 -4.7019,-1.23599 -6.50807,-0.45384 -2.21571,0.95329 -3.58336,2.82734 -10.32445,14.11781 -5.04366,8.44734 -7.128,11.46861 -9.97514,14.45978 -3.53588,3.71254 -6.29649,5.08257 -9.25548,4.59134 l -1.39004,-0.23406 0.12402,0.94356 c 0.0681,0.5189 0.35983,4.53965 0.64873,8.92914 0.37515,4.54578 1.29101,9.00263 0.2758,12.33678 5.54253,24.66375 5.86426,-1.47829 5.50322,-3.51889 -1.62155,8.9718 4.3256,25.01567 4.33601,-0.11125 0.65943,0.34867 -0.34192,1.01165 -0.31623,6.4055 1.23371,16.70102 7.30662,2.02321 3.97276,-6.80007 2.69911,18.6644 8.22009,21.87318 4.07576,-0.73867 2.99509,15.06842 10.99583,24.39516 3.70874,-0.65235 3.23318,12.77273 12.7178,26.26875 3.97226,-0.97365 8.24921,25.73844 11.03085,17.23655 3.42021,-4.09676 12.91717,35.96945 9.25816,14.20599 3.20838,-4.51533 13.95692,43.34915 10.86286,20.70814 4.40028,-0.60402 2.60931,2.64362 5.39754,14.03406 6.22633,18.13854 5.32531,24.28909 5.75762,8.75815 3.3607,-5.14185 -0.9949,-4.05238 -4.91593,-14.01476 -4.21975,-14.71361 0,0 5.20531,10.98801 6.85101,18.57873 -1.02221,27.12803 9.08073,24.4537 2.5228,-4.19494 -1.17325,-6.80037 -4.27088,-16.12652 -3.47618,-15.46414 0.48501,0.397 3.6254,10.62141 4.27835,12.54592 1.62393,4.79075 2.3358,10.07668 2.98078,22.13866 0.4868,9.10485 0.83337,11.80997 1.59305,12.44378 0.86476,0.72134 3.15295,-0.2559 3.38142,-2.7209 0.0827,-0.88519 0.90818,-3.02035 0.75195,-4.7348 -0.53937,-5.16296 1.58591,-11.52718 -4.48484,-30.54684 -1.47155,-6.86177 -4.83719,-9.04648 -3.9039,-9.04648 0.64103,0 1.29018,0.98095 3.00926,4.54361 3.41277,7.07577 5.1398,13.53811 6.19206,23.16976 0.28271,2.58597 0.38288,6.25807 0.42179,15.39696 0.0486,11.58595 0.13435,13.79498 0.6078,15.67146 0.18787,0.73776 0.31362,0.87546 0.84948,0.86574 0.34581,0 1.04697,-0.20976 1.55754,-0.45385 z" style="fill:#fff;stroke:#000;stroke-width:.69764328;stroke-miterlimit:4;stroke-dasharray:none"/><path id="path3828-3-6" d="m 357.88554,569.35357 c -2.36553,-1.15938 -3.89775,-4.31745 -4.51371,-9.30761 -1.20078,-9.72831 1.80797,-30.05768 6.50266,-43.93778 3.68599,-10.89712 11.2757,-25.9746 16.65325,-33.0838 3.56817,-4.71689 6.76411,-7.73968 9.73604,-9.21035 2.1359,-1.05604 4.7019,-1.23599 6.50807,-0.45384 2.21571,0.95329 3.58336,2.82734 10.32445,14.11781 5.04366,8.44734 7.128,11.46861 9.97514,14.45978 3.53588,3.71254 6.29649,5.08257 9.25548,4.59134 l 1.39004,-0.23406 -0.12402,0.94356 c -0.0681,0.5189 -0.35983,4.53965 -0.64873,8.92914 -0.37515,4.54578 -1.29101,9.00263 -0.2758,12.33678 -5.54253,24.66376 -5.86426,-1.47829 -5.50322,-3.51889 1.62155,8.9718 -4.3256,25.01568 -4.33601,-0.11125 -0.65943,0.34867 0.34192,1.01165 0.31623,6.4055 -1.23371,16.70103 -7.30662,2.02321 -3.97276,-6.80007 -2.69911,18.66441 -8.22009,21.87319 -4.07576,-0.73867 -2.99509,15.06842 -10.99583,24.39517 -3.70874,-0.65235 -3.23318,12.77273 -12.7178,26.26876 -3.97226,-0.97365 -8.24921,25.73845 -11.03085,17.23655 -3.42021,-4.09676 -12.91717,35.96946 -9.25816,14.20599 -3.20838,-4.51533 -13.95692,43.34916 -10.86286,20.70814 -4.40028,-0.60402 -2.60931,2.64362 -5.39754,14.03406 -6.22633,18.13854 -5.32531,24.2891 -5.75762,8.75816 -3.3607,-5.14185 0.9949,-4.05238 4.91593,-14.01476 4.21975,-14.71361 0,0 -5.20531,10.98801 -6.85101,18.57873 1.02221,27.12804 -9.08073,24.45371 -2.5228,-4.19494 1.17325,-6.80037 4.27088,-16.12652 3.47618,-15.46414 -0.48501,0.397 -3.6254,10.62141 -4.27835,12.54592 -1.62393,4.79075 -2.3358,10.07668 -2.98078,22.13867 -0.4868,9.10485 -0.83337,11.80997 -1.59305,12.44378 -0.86476,0.72134 -3.15295,-0.2559 -3.38142,-2.7209 -0.0827,-0.88519 -0.90818,-3.02035 -0.75195,-4.7348 0.53937,-5.16296 -1.58591,-11.52719 4.48484,-30.54685 1.47155,-6.86177 4.83719,-9.04648 3.9039,-9.04648 -0.64103,0 -1.29018,0.98095 -3.00926,4.54361 -3.41277,7.07577 -5.1398,13.53811 -6.19206,23.16976 -0.28271,2.58598 -0.38288,6.25808 -0.42179,15.39697 -0.0486,11.58595 -0.13435,13.79498 -0.6078,15.67146 -0.18787,0.73776 -0.31362,0.87546 -0.84948,0.86574 -0.34581,0 -1.04697,-0.20976 -1.55754,-0.45385 z" style="fill:#fff;stroke:#000;stroke-width:.69764328;stroke-miterlimit:4;stroke-dasharray:none"/><rect style="fill:#b3b3b3;fill-rule:evenodd;stroke:#b3b3b3;stroke-width:.66938049px;stroke-linecap:butt;stroke-linejoin:miter;stroke-opacity:1" id="rect3005" width="74.901" height="142.968" x="413.492" y="450.021" rx="13.496" ry="14.907"/><rect style="fill:#b3b3b3;stroke:#b3b3b3;stroke-width:.66938049" id="rect3007" width="19.569" height="10.164" x="417.54" y="477.125" rx="13.496" ry="10.164"/><rect id="rect3009" width="19.569" height="10.164" x="417.54" y="477.125" rx="13.496" ry="10.164" style="fill:#b3b3b3;stroke:#b3b3b3;stroke-width:.66938049"/><rect style="fill:#80b3ff;stroke:#80b3ff;stroke-width:10.2019186;stroke-linejoin:round;stroke-miterlimit:4;stroke-dasharray:none" id="rect3011" width="40.323" height="80.574" x="431.223" y="470.697" rx="0" ry="0"/><ellipse style="fill:#fff;stroke:#000;stroke-width:2.00814199;stroke-miterlimit:4;stroke-dasharray:none" id="path3013" cx="450.605" cy="578.759" rx="8.772" ry="8.808"/></g></svg>